<svg width="372" height="372" viewBox="0 0 372 372" fill="none" xmlns="http://www.w3.org/2000/svg">
<path fill-rule="evenodd" clip-rule="evenodd" d="M315.125 211.109C309.393 211.109 304.631 209.222 300.839 205.447C297.047 201.672 295.151 196.898 295.151 191.125V153.394C295.151 147.824 297.062 143.076 300.883 139.15C304.704 135.224 309.485 133.261 315.226 133.261C320.966 133.261 325.725 135.224 329.503 139.15C333.281 143.076 335.171 147.824 335.171 153.394V191.125C335.171 196.898 333.267 201.672 329.46 205.447C325.653 209.222 320.874 211.109 315.125 211.109ZM247.964 211.109C244.24 211.109 240.922 210.285 238.008 208.638V193.746C238.008 190.315 237.117 187.06 235.334 183.98C233.615 181.013 231.231 178.585 228.181 176.695V56.7458C228.181 51.0462 230.072 46.3019 233.854 42.5129C237.636 38.7238 242.363 36.8293 248.036 36.8293C253.668 36.8293 258.416 38.7262 262.28 42.5201C266.145 46.3142 268.077 51.0504 268.077 56.7287V191.069C268.077 196.892 266.123 201.688 262.214 205.456C258.305 209.225 253.555 211.109 247.964 211.109ZM160.891 137.695L200.848 160.848V109.307C200.848 103.733 198.96 98.981 195.183 95.0519C191.407 91.123 186.649 89.1586 180.908 89.1586C175.168 89.1586 170.397 91.1026 166.594 94.9907C162.792 98.8788 160.891 103.669 160.891 109.36V137.695Z" fill="#6366F1"/>
<path d="M114.329 330.908V253.51L46.5282 214.186V291.714L114.329 330.908ZM133.929 330.908L201.534 291.714V214.186L133.929 253.535V330.908ZM124 236.976L190.633 198.069L124 159.42L57.1702 198.069L124 236.976ZM36.6723 309.203C33.2821 307.283 30.7488 304.784 29.0724 301.705C27.3959 298.626 26.5577 295.391 26.5577 292.001V203.999C26.5577 200.568 27.3959 197.312 29.0724 194.233C30.7488 191.154 33.2821 188.655 36.6723 186.736L114.144 141.96C117.261 140.155 120.542 139.253 123.987 139.253C127.433 139.253 130.808 140.155 134.114 141.96L211.39 186.736C214.608 188.655 217.108 191.154 218.891 194.233C220.674 197.312 221.566 200.568 221.566 203.999V292.001C221.566 295.391 220.674 298.626 218.891 301.705C217.108 304.784 214.608 307.283 211.39 309.203L134.114 353.978C130.752 355.824 127.348 356.747 123.903 356.747C120.457 356.747 117.204 355.824 114.144 353.978L36.6723 309.203Z" fill="#6366F1"/>
</svg>
